<svg version="1.1" xmlns="http://www.w3.org/2000/svg" xmlns:xlink="http://www.w3.org/1999/xlink" x="0px" y="0px" viewBox="0 0 1000 1000" enable-background="new 0 0 1000 1000" xml:space="preserve">
<g><path d="M500,10C229.4,10,10,229.4,10,500c0,270.6,219.4,490,490,490c270.6,0,490-219.4,490-490C990,229.4,770.6,10,500,10z M500,871.1c-205,0-371.1-166.1-371.1-371.1c0-204.9,166.1-371.1,371.1-371.1S871.1,295.1,871.1,500C871.1,704.9,705,871.1,500,871.1z"/><path d="M500,183.7c-174.7,0-316.3,141.6-316.3,316.3c0,174.7,141.6,316.3,316.3,316.3c174.7,0,316.3-141.6,316.3-316.3C816.3,325.3,674.7,183.7,500,183.7z M500,394.6c-91.8,0-166.1-37.2-166.1-83.1c0-45.9,74.4-83.1,166.1-83.1c91.8,0,166.1,37.2,166.1,83.1C666.1,357.4,591.8,394.6,500,394.6z"/></g>
</svg>